#!OML:ASF F:\VICON\USERDATA\INSTALL\rory3\rory3.ASF
:FULLY-SPECIFIED
:DEGREES
133
root 0.0152906 17.9846 -0.890538 1.74045 -7.88361 1.15609
lowerback -2.11842 -0.637192 -3.59049
upperback -0.624007 -0.783362 1.29251
thorax 0.613284 -0.394483 3.32245
lowerneck -19.5777 -0.0130673 -8.16225
upperneck 35.2657 2.75657 0.803323
head 15.661 0.122923 2.27633
rclavicle 1.25452e-014 -8.74653e-015
rhumerus -11.3867 42.6819 -83.0546
rradius 104.039
rwrist 45.2594
rhand -16.5025 -5.9026
rfingers 7.12502
rthumb 9.71539 -35.6585
lclavicle 1.25452e-014 -8.74653e-015
lhumerus -29.9977 -29.1393 103.215
lradius 80.3446
lwrist 5.87326
lhand -34.3601 34.4546
lfingers 7.12502
lthumb -7.52718 64.3007
rfemur -6.86694 7.29371 15.1117
rtibia 24.4687
rfoot -16.616 -4.09206
rtoes 4.23419
lfemur 0.400938 -2.15802 -21.5373
ltibia 12.7242
lfoot -10.6574 3.75931
ltoes -10.9246
134
root 0.0177499 17.9857 -0.888539 1.80487 -7.95394 1.13299
lowerback -2.20373 -0.617501 -3.53574
upperback -0.631928 -0.755452 1.29193
thorax 0.649915 -0.381089 3.29098
lowerneck -19.6141 -0.00263083 -8.13521
upperneck 35.2179 2.77716 0.770584
head 15.6462 0.132297 2.26094
rclavicle 1.90787e-014 -1.39149e-014
rhumerus -11.5347 42.7044 -83.136
rradius 104.07
rwrist 44.431
rhand -16.8269 -5.12763
rfingers 7.12502
rthumb 9.4024 -34.8979
lclavicle 1.90787e-014 -1.39149e-014
lhumerus -30.2084 -29.2774 103.292
lradius 80.4682
lwrist 6.13078
lhand -34.3763 34.3705
lfingers 7.12502
lthumb -7.5428 64.216
rfemur -6.96541 7.28055 15.1133
rtibia 24.4999
rfoot -16.5821 -4.05424
rtoes 3.6845
lfemur 0.366867 -2.11587 -21.5219
ltibia 12.7029
lfoot -10.6773 3.7759
ltoes -11.406
135
root 0.0212843 17.9841 -0.880462 1.80886 -8.14198 1.21313
lowerback -2.36522 -0.580004 -3.57011
upperback -0.576935 -0.698376 1.26457
thorax 0.792208 -0.356312 3.28208
lowerneck -19.7216 0.0160245 -8.06985
upperneck 35.1858 2.83087 0.668046
head 15.6567 0.148935 2.21646
rclavicle 3.56803e-014 -5.1684e-015
rhumerus -11.5822 42.782 -83.1445
rradius 104.039
rwrist 43.9324
rhand -17.0657 -4.49998
rfingers 7.12502
rthumb 9.17199 -34.2805
lclavicle 3.56803e-014 -5.1684e-015
lhumerus -30.3805 -29.4047 103.353
lradius 80.6398
lwrist 6.44566
lhand -34.4518 34.5026
lfingers 7.12502
lthumb -7.61571 64.3454
rfemur -7.01581 7.27013 14.9878
rtibia 24.523
rfoot -16.4733 -3.93599
rtoes 3.28551
lfemur 0.408869 -2.179 -21.6645
ltibia 12.7019
lfoot -10.7276 4.01358
ltoes -11.7144
136
root 0.0248146 17.9811 -0.87083 1.67134 -8.42992 1.24412
lowerback -2.39614 -0.531023 -3.58194
upperback -0.469049 -0.630742 1.27609
thorax 0.914998 -0.32675 3.30209
lowerneck -19.859 0.0429585 -7.99539
upperneck 35.1346 2.9104 0.52654
head 15.6653 0.172161 2.1585
rclavicle 1.1493e-014 0
rhumerus -11.5569 42.9357 -83.1134
rradius 103.974
rwrist 43.5068
rhand -17.2881 -3.88909
rfingers 7.12502
rthumb 8.95734 -33.6789
lclavicle 1.1493e-014 0
lhumerus -30.5777 -29.3704 103.411
lradius 80.9218
lwrist 6.86343
lhand -34.4929 34.7251
lfingers 7.12502
lthumb -7.65529 64.5665
rfemur -6.91262 7.39352 14.9337
rtibia 24.5442
rfoot -16.4175 -3.77049
rtoes 3.40136
lfemur 0.606462 -2.09323 -21.7524
ltibia 12.7123
lfoot -10.7846 4.21925
ltoes -11.4515
137
root 0.0271319 17.9801 -0.867524 1.57521 -8.59199 1.21848
lowerback -2.32318 -0.499977 -3.54291
upperback -0.421155 -0.592483 1.29057
thorax 0.91987 -0.308394 3.29662
lowerneck -19.9537 0.0528721 -7.94589
upperneck 35.0906 2.94411 0.450575
head 15.6673 0.182655 2.12409
rclavicle -1.44899e-014 -3.97569e-016
rhumerus -11.6762 43.0603 -83.1617
rradius 103.98
rwrist 42.8235
rhand -17.5567 -3.27785
rfingers 7.12502
rthumb 8.69815 -33.0786
lclavicle -1.44899e-014 -3.97569e-016
lhumerus -30.9059 -29.33 103.485
lradius 81.2323
lwrist 7.15766
lhand -34.306 34.6159
lfingers 7.12502
lthumb -7.47492 64.4639
rfemur -6.83416 7.53863 14.961
rtibia 24.553
rfoot -16.4464 -3.72093
rtoes 3.54119
lfemur 0.707483 -2.01687 -21.7443
ltibia 12.7666
lfoot -10.8414 4.30771
ltoes -11.187
138
root 0.0278571 17.9806 -0.869981 1.563 -8.6127 1.17088
lowerback -2.24251 -0.492527 -3.50035
upperback -0.406955 -0.586284 1.30342
thorax 0.888436 -0.304786 3.28659
lowerneck -20.0528 0.0357506 -7.93257
upperneck 35.0505 2.92758 0.438279
head 15.6725 0.176594 2.11407
rclavicle -3.96754e-015 9.14409e-015
rhumerus -11.7972 43.1903 -83.2136
rradius 103.992
rwrist 41.9984
rhand -17.6926 -3.02631
rfingers 7.12502
rthumb 8.56704 -32.8325
lclavicle -3.96754e-015 9.14409e-015
lhumerus -31.2368 -29.438 103.554
lradius 81.4461
lwrist 7.12414
lhand -34.0108 34.2227
lfingers 7.12502
lthumb -7.18994 64.0806
rfemur -6.83181 7.5771 15.0176
rtibia 24.5566
rfoot -16.4374 -3.72527
rtoes 3.61639
lfemur 0.678066 -1.96213 -21.6857
ltibia 12.8366
lfoot -10.8419 4.28917
ltoes -11.4197
139
root 0.0292818 17.9813 -0.87305 1.62512 -8.58726 1.10531
lowerback -2.23228 -0.519531 -3.44412
upperback -0.401803 -0.624235 1.33306
thorax 0.890888 -0.32379 3.28434
lowerneck -20.1657 0.039788 -7.95203
upperneck 34.9867 2.93861 0.471279
head 15.6658 0.185315 2.13392
rclavicle -5.11948e-015 -1.31198e-014
rhumerus -11.8401 43.4637 -83.1993
rradius 103.965
rwrist 41.052
rhand -17.77 -3.10694
rfingers 7.12502
rthumb 8.49235 -32.9162
lclavicle -5.11948e-015 -1.31198e-014
lhumerus -31.4789 -29.4625 103.608
lradius 81.614
lwrist 7.21994
lhand -33.8681 33.7671
lfingers 7.12502
lthumb -7.05226 63.6296
rfemur -6.89022 7.5754 15.0782
rtibia 24.5531
rfoot -16.4258 -3.74827
rtoes 3.65987
lfemur 0.55571 -1.94728 -21.6075
ltibia 12.9316
lfoot -10.8513 4.24639
ltoes -11.7582
140
root 0.031368 17.9816 -0.874231 1.63979 -8.54679 1.16839
lowerback -2.19631 -0.556737 -3.51026
upperback -0.421009 -0.673653 1.33235
thorax 0.855822 -0.347693 3.31975
lowerneck -20.2033 0.0569263 -7.92234
upperneck 34.923 2.97835 0.408493
head 15.6438 0.199043 2.10858
rclavicle -6.86836e-015 -3.18055e-015
rhumerus -11.9622 43.8066 -83.2076
rradius 104.003
rwrist 39.7869
rhand -17.8533 -3.05557
rfingers 7.12502
rthumb 8.41188 -32.8681
lclavicle -6.86836e-015 -3.18055e-015
lhumerus -31.7968 -29.3495 103.711
lradius 81.8073
lwrist 7.51986
lhand -33.6802 33.6611
lfingers 7.12502
lthumb -6.87083 63.5296
rfemur -6.91582 7.51848 14.9997
rtibia 24.5488
rfoot -16.3948 -3.79288
rtoes 3.33011
lfemur 0.460812 -2.08479 -21.6901
ltibia 13.0526
lfoot -10.871 4.32751
ltoes -11.5754
141
root 0.0337358 17.9802 -0.874805 1.63302 -8.55792 1.15556
lowerback -2.10381 -0.572709 -3.50753
upperback -0.480648 -0.69891 1.36431
thorax 0.74518 -0.357181 3.35156
lowerneck -20.1612 0.0716698 -7.90937
upperneck 34.9102 3.01461 0.343477
head 15.6284 0.207074 2.08438
rclavicle -9.02878e-015 8.34896e-015
rhumerus -12.2607 44.1726 -83.2641
rradius 104.108
rwrist 38.5306
rhand -18.0481 -2.91451
rfingers 7.12502
rthumb 8.22387 -32.7345
lclavicle -9.02878e-015 8.34896e-015
lhumerus -32.2395 -29.1525 103.896
lradius 81.9913
lwrist 7.59637
lhand -33.2524 33.888
lfingers 7.12502
lthumb -6.45788 63.7695
rfemur -6.91794 7.51705 15.0042
rtibia 24.5566
rfoot -16.4154 -3.75075
rtoes 3.64491
lfemur 0.424109 -2.06977 -21.6877
ltibia 13.1301
lfoot -10.8824 4.34276
ltoes -11.7301
142
root 0.0357701 17.9781 -0.87223 1.59271 -8.66325 1.067
lowerback -2.04258 -0.557281 -3.45026
upperback -0.502565 -0.682269 1.42698
thorax 0.687051 -0.347304 3.3851
lowerneck -20.1117 0.0761626 -7.91723
upperneck 34.8945 3.03603 0.294979
head 15.6099 0.208733 2.06792
rclavicle 3.53775e-015 1.19271e-014
rhumerus -12.5425 44.5129 -83.3064
rradius 104.2
rwrist 37.6075
rhand -18.2657 -2.63843
rfingers 7.12502
rthumb 8.01387 -32.4665
lclavicle 3.53775e-015 1.19271e-014
lhumerus -32.7246 -28.9913 104.121
lradius 82.1949
lwrist 7.39611
lhand -32.916 33.8868
lfingers 7.12502
lthumb -6.13308 63.7781
rfemur -6.88172 7.60979 15.0968
rtibia 24.5826
rfoot -16.4288 -3.68307
rtoes 4.1684
lfemur 0.497622 -2.07792 -21.6126
ltibia 13.1415
lfoot -10.8952 4.44417
ltoes -11.8261
143
root 0.0390588 17.9746 -0.867952 1.5 -8.76883 1.05529
lowerback -2.01157 -0.544848 -3.459
upperback -0.439739 -0.666377 1.46995
thorax 0.733469 -0.341365 3.43483
lowerneck -20.149 0.068243 -7.91213
upperneck 34.7916 3.04995 0.220372
head 15.5709 0.208331 2.03637
rclavicle -3.47058e-015 0
rhumerus -12.7073 44.8664 -83.2851
rradius 104.295
rwrist 36.9723
rhand -18.4959 -2.41949
rfingers 7.12502
rthumb 7.79176 -32.2559
lclavicle -3.47058e-015 0
lhumerus -33.1281 -28.7921 104.33
lradius 82.4125
lwrist 7.19168
lhand -32.5589 33.9218
lfingers 7.12502
lthumb -5.78833 63.8228
rfemur -6.7842 7.6886 15.1003
rtibia 24.5853
rfoot -16.4225 -3.63597
rtoes 4.12433
lfemur 0.599221 -2.12701 -21.6414
ltibia 13.1935
lfoot -10.9339 4.62299
ltoes -11.9502
144
root 0.0420709 17.9724 -0.866347 1.44939 -8.77719 1.07996
lowerback -1.96929 -0.548131 -3.47337
upperback -0.396698 -0.671483 1.47003
thorax 0.754582 -0.345078 3.44302
lowerneck -20.2359 0.0482504 -7.8707
upperneck 34.7296 3.03041 0.169075
head 15.5646 0.199987 2.00383
rclavicle -8.8929e-015 -2.14687e-014
rhumerus -12.9103 45.1297 -83.3252
rradius 104.435
rwrist 36.5537
rhand -18.6862 -2.23021
rfingers 7.12502
rthumb 7.60807 -32.0734
lclavicle -8.8929e-015 -2.14687e-014
lhumerus -33.4787 -28.7719 104.496
lradius 82.6171
lwrist 7.28475
lhand -32.1955 34.098
lfingers 7.12502
lthumb -5.43748 64.0083
rfemur -6.73328 7.66217 15.0666
rtibia 24.5979
rfoot -16.4099 -3.62358
rtoes 3.71611
lfemur 0.642 -2.17169 -21.6865
ltibia 13.2225
lfoot -10.9743 4.66507
ltoes -11.5442
145
root 0.0438218 17.9741 -0.867618 1.44426 -8.77894 1.05089
lowerback -1.88879 -0.558261 -3.46887
upperback -0.415421 -0.688138 1.51029
thorax 0.692091 -0.351885 3.48243
lowerneck -20.2885 0.030678 -7.91006
upperneck 34.7156 3.02995 0.154766
head 15.5706 0.19237 2.0048
rclavicle -2.19919e-014 -3.18055e-015
rhumerus -13.163 45.4577 -83.3912
rradius 104.601
rwrist 36.1274
rhand -18.92 -1.97663
rfingers 7.12502
rthumb 7.38236 -31.8278
lclavicle -2.19919e-014 -3.18055e-015
lhumerus -33.8317 -28.9154 104.716
lradius 82.7981
lwrist 7.95609
lhand -32.152 33.6141
lfingers 7.12502
lthumb -5.39552 63.5254
rfemur -6.74545 7.64886 15.0928
rtibia 24.6269
rfoot -16.4042 -3.61192
rtoes 3.62602
lfemur 0.662776 -2.14385 -21.6588
ltibia 13.209
lfoot -10.9876 4.64186
ltoes -11.5176
146
root 0.0428093 17.9754 -0.874823 1.4219 -8.71832 1.10922
lowerback -1.7382 -0.590989 -3.63849
upperback -0.446041 -0.734185 1.56509
thorax 0.582967 -0.372475 3.63525
lowerneck -20.3272 0.0101568 -7.97721
upperneck 34.6914 3.02973 0.151131
head 15.568 0.183336 2.01476
rclavicle 1.59202e-014 7.95139e-016
rhumerus -13.3489 45.8481 -83.3654
rradius 104.763
rwrist 35.648
rhand -19.1589 -1.60729
rfingers 7.12502
rthumb 7.1518 -31.4664
lclavicle 1.59202e-014 7.95139e-016
lhumerus -34.1413 -29.007 104.971
lradius 82.964
lwrist 8.80027
lhand -32.6024 32.2756
lfingers 7.12502
lthumb -5.83035 62.1754
rfemur -6.75653 7.59892 15.0545
rtibia 24.6464
rfoot -16.3567 -3.70874
rtoes 3.29598
lfemur 0.649222 -1.95732 -21.6771
ltibia 13.2155
lfoot -10.9601 4.39236
ltoes -11.5215
